<svg width="170" height="170" viewBox="0 0 170 170" fill="none" xmlns="http://www.w3.org/2000/svg">
<rect width="170" height="170" rx="85" fill="#F25C39"/>
<path d="M94.1196 81.2949C94.092 89.2083 91.4772 96.264 86.2754 102.462C82.4017 107.083 77.1307 110.375 70.4624 112.34C67.0037 113.364 63.0747 113.917 58.6753 114V127.447H34.022V62.4106H47.6353L53.4043 70.3794C59.6022 63.7664 66.1183 60.46 72.9526 60.46C79.7869 60.46 85.0164 62.4245 88.6411 66.3535C92.2935 70.2826 94.1196 75.263 94.1196 81.2949ZM71.085 77.9331C70.5039 77.7118 69.7845 77.6011 68.9268 77.6011C67.1836 77.6011 65.3021 78.611 63.2822 80.6309C61.29 82.623 59.7544 84.9058 58.6753 87.479V99.3906C59.1457 99.0586 59.8374 98.6159 60.7505 98.0625C61.6912 97.4814 62.715 96.7897 63.8218 95.9873C70.3517 91.3389 73.6167 86.6074 73.6167 81.793C73.6167 79.8561 72.7728 78.5695 71.085 77.9331ZM139.234 81.876C136.689 81.876 134.074 82.8029 131.39 84.6567C128.706 86.5106 127.35 88.2676 127.323 89.9277V114H102.337V62.4106H127.323V67.9307C128.734 65.8001 130.477 64.0985 132.552 62.8257C134.655 61.5529 136.882 60.792 139.234 60.543V81.876Z" fill="white"/>
</svg>
